<svg width="70" height="37" viewBox="0 0 70 37" fill="none" xmlns="http://www.w3.org/2000/svg">
<path d="M69.7052 1.40051H44.1328V18.4461H69.7052V1.40051Z" fill="white"/>
<path d="M52.7802 1.40051H44.1328V18.4461H52.7802V1.40051Z" fill="#2E8F85"/>
<path d="M69.8583 1.40051H61.2109V18.4461H69.8583V1.40051Z" fill="#EA1C42"/>
<path d="M21.5347 12.917L6 17.6907V35.6203H35.872V12.917H21.5347ZM15.5555 29.6411H10.7818V24.8192H15.5555V29.6411ZM23.9216 25.7996H19.1398V20.9777H23.9216V25.7996ZM32.2876 34.4229H27.4657V20.608H32.2876V34.4229Z" fill="white"/>
<path d="M68.913 34.4235H0.0234375V36.8103H68.913V34.4235Z" fill="white"/>
<path fill-rule="evenodd" clip-rule="evenodd" d="M29.8932 0.810303C30.6411 0.810303 31.2474 1.41658 31.2474 2.16447V17.6911C31.2474 18.439 30.6411 19.0453 29.8932 19.0453C29.1453 19.0453 28.5391 18.439 28.5391 17.6911V2.16447C28.5391 1.41658 29.1453 0.810303 29.8932 0.810303Z" fill="white"/>
<path fill-rule="evenodd" clip-rule="evenodd" d="M21.5339 4.39453C22.2817 4.39453 22.888 5.00081 22.888 5.74869V16.5016C22.888 17.2495 22.2817 17.8558 21.5339 17.8558C20.786 17.8558 20.1797 17.2495 20.1797 16.5016V5.74869C20.1797 5.00081 20.786 4.39453 21.5339 4.39453Z" fill="white"/>
<path fill-rule="evenodd" clip-rule="evenodd" d="M41.5312 36.81V1.18384H44.553V36.81H41.5312Z" fill="white"/>
</svg>
