<svg width="71" height="37" viewBox="0 0 71 37" fill="none" xmlns="http://www.w3.org/2000/svg">
<path d="M69.7606 1.39783H44.3047V18.3658H69.7606V1.39783Z" fill="white"/>
<path d="M52.9127 1.39783H44.3047V18.3658H52.9127V1.39783Z" fill="#0042B3"/>
<path d="M69.9127 1.39783H61.3047V18.3658H69.9127V1.39783Z" fill="#EA1C42"/>
<path d="M37.2474 12.8618H17.0234L20.0634 35.4618H40.3194L37.2474 12.8618ZM26.7194 25.0458H21.9674V20.2858H26.7274L26.7194 25.0458ZM34.7754 25.0458H30.0154V20.2858H34.7674L34.7754 25.0458Z" fill="white"/>
<path d="M70.1384 34.2704H1.5625V36.6464H70.1384V34.2704Z" fill="white"/>
<path fill-rule="evenodd" clip-rule="evenodd" d="M24.3324 0.810303C25.0769 0.810303 25.6804 1.41382 25.6804 2.1583V17.6143C25.6804 18.3587 25.0769 18.9623 24.3324 18.9623C23.5879 18.9623 22.9844 18.3587 22.9844 17.6143V2.1583C22.9844 1.41382 23.5879 0.810303 24.3324 0.810303Z" fill="white"/>
<path fill-rule="evenodd" clip-rule="evenodd" d="M42.8789 36.6461V1.18213H45.8869V36.6461H42.8789Z" fill="white"/>
<path fill-rule="evenodd" clip-rule="evenodd" d="M6.91772 2.05178C6.97328 1.35081 7.55833 0.810303 8.2615 0.810303H16.0135C16.7151 0.810303 17.2995 1.34856 17.3569 2.04785L16.0135 2.1583C17.3569 2.04785 17.3569 2.0476 17.3569 2.04785L17.4704 3.43028C17.5426 4.31078 17.6457 5.56993 17.7695 7.08464C18.017 10.114 18.3471 14.1657 18.6771 18.2548C19.0071 22.3436 19.3373 26.4709 19.5849 29.651C19.8284 32.7771 20.0015 35.095 20.0015 35.4622C20.0015 36.2067 19.398 36.8102 18.6535 36.8102C17.909 36.8102 17.3055 36.2067 17.3055 35.4622C17.3055 35.4648 17.3049 35.4304 17.2997 35.3321C17.2951 35.2441 17.2881 35.1261 17.2786 34.9783C17.2596 34.6832 17.2316 34.2815 17.1956 33.7868C17.1237 32.7981 17.0207 31.4487 16.8971 29.8603C16.6497 26.6841 16.3198 22.5599 15.9899 18.4717C15.6599 14.3838 15.3299 10.3331 15.0825 7.30419C14.9587 5.78978 14.8556 4.53088 14.7834 3.6506L14.7716 3.5063H9.50687L6.96529 35.5688C6.90646 36.3109 6.25713 36.8648 5.51498 36.806C4.77283 36.7472 4.21889 36.0979 4.27772 35.3557L6.91772 2.05178Z" fill="white"/>
<path fill-rule="evenodd" clip-rule="evenodd" d="M7.56184 1.00742C8.19756 0.619984 9.02699 0.821264 9.41442 1.45699L17.1664 14.177C17.4719 14.6782 17.4179 15.3194 17.0329 15.7625L8.32556 25.7851L17.8518 33.2071C18.4391 33.6646 18.5442 34.5116 18.0867 35.0989C17.6291 35.6862 16.7821 35.7913 16.1948 35.3338L5.54687 27.0378C5.255 26.8104 5.06943 26.473 5.03366 26.1047C4.9979 25.7365 5.11508 25.3697 5.35774 25.0904L14.3514 14.7384L7.11226 2.86C6.72483 2.22428 6.92611 1.39485 7.56184 1.00742Z" fill="white"/>
<path fill-rule="evenodd" clip-rule="evenodd" d="M32.3988 0.810303C33.1433 0.810303 33.7468 1.41382 33.7468 2.1583V17.6143C33.7468 18.3587 33.1433 18.9623 32.3988 18.9623C31.6543 18.9623 31.0508 18.3587 31.0508 17.6143V2.1583C31.0508 1.41382 31.6543 0.810303 32.3988 0.810303Z" fill="white"/>
<path fill-rule="evenodd" clip-rule="evenodd" d="M0.210938 9.75046C0.210938 9.00598 0.814456 8.40247 1.55893 8.40247H7.64692C8.3914 8.40247 8.99492 9.00598 8.99492 9.75046C8.99492 10.4949 8.3914 11.0985 7.64692 11.0985H1.55893C0.814456 11.0985 0.210938 10.4949 0.210938 9.75046Z" fill="white"/>
</svg>
