<svg width="71" height="37" viewBox="0 0 71 37" fill="none" xmlns="http://www.w3.org/2000/svg">
<path d="M69.903 0.940308H44.0625V18.1646H69.903V0.940308Z" fill="white"/>
<path d="M69.903 0.940308H44.0625V2.7675H69.903V0.940308Z" fill="#EA1C42"/>
<path d="M69.903 4.06653H44.0625V5.87748H69.903V4.06653Z" fill="#EA1C42"/>
<path d="M69.903 7.18481H44.0625V8.97952H69.903V7.18481Z" fill="#EA1C42"/>
<path d="M69.903 10.3031H44.0625V12.0816H69.903V10.3031Z" fill="#EA1C42"/>
<path d="M69.903 13.4222H44.0625V15.1845H69.903V13.4222Z" fill="#EA1C42"/>
<path d="M69.903 16.5405H44.0625V18.2865H69.903V16.5405Z" fill="#EA1C42"/>
<path d="M56.9828 0.940308H44.0625V8.98807H56.9828V0.940308Z" fill="#0042B3"/>
<path d="M70.2057 34.3984H0.59375V36.8103H70.2057V34.3984Z" fill="white"/>
<path fill-rule="evenodd" clip-rule="evenodd" d="M42.5352 36.81V0.810303H45.5886V36.81H42.5352Z" fill="white"/>
<path d="M37.4364 19.8702C37.2172 14.0882 31.3783 8.98828 24.1832 8.98828C16.9881 8.98828 11.1899 14.0882 10.93 19.8702H9.07031V35.3567H39.2555V19.8702H37.4364ZM18.7585 27.0815H13.9022V22.209H18.726L18.7585 27.0815ZM27.2123 27.0815H22.3479V22.209H27.1798L27.2123 27.0815ZM35.6661 27.0815H30.7936V22.209H35.6661V27.0815Z" fill="white"/>
<path fill-rule="evenodd" clip-rule="evenodd" d="M6.09883 2.37341C6.85456 2.37341 7.46719 2.98605 7.46719 3.74178V35.3562C7.46719 36.112 6.85456 36.7246 6.09883 36.7246C5.34311 36.7246 4.73047 36.112 4.73047 35.3562V3.74178C4.73047 2.98605 5.34311 2.37341 6.09883 2.37341Z" fill="white"/>
<path fill-rule="evenodd" clip-rule="evenodd" d="M15.0871 5.95483C15.8428 5.95483 16.4555 6.56747 16.4555 7.3232V17.393C16.4555 18.1488 15.8428 18.7614 15.0871 18.7614C14.3314 18.7614 13.7188 18.1488 13.7188 17.393V7.3232C13.7188 6.56747 14.3314 5.95483 15.0871 5.95483Z" fill="white"/>
</svg>
