<svg width="70" height="37" viewBox="0 0 70 37" fill="none" xmlns="http://www.w3.org/2000/svg">
<path d="M69.3693 5.0813H43.7969V14.5484H69.3693V5.0813Z" fill="#FFD42E"/>
<path d="M43.7969 1.28846V5.49963L69.3693 5.49963V1.28846L43.7969 1.28846Z" fill="#EA1C42"/>
<path d="M43.7969 13.7211V18.2859H69.3693V13.7211L43.7969 13.7211Z" fill="#EA1C42"/>
<path d="M24.6755 7.13123V17.6913H6.75391V35.6209H36.6259V7.13123H24.6755ZM16.3094 29.6336H11.5357V24.8117H16.3094V29.6336ZM24.6755 29.6336H19.8937V24.8117H24.6755V29.6336ZM33.0415 29.6336H28.2196V24.8117H33.0415V29.6336ZM33.0415 16.9278H28.2196V12.1541H33.0415V16.9278Z" fill="white"/>
<path d="M69.6669 34.4235H0.777344V36.8103H69.6669V34.4235Z" fill="white"/>
<path fill-rule="evenodd" clip-rule="evenodd" d="M13.9245 0.810303C14.6724 0.810303 15.2786 1.41658 15.2786 2.16447V17.6911C15.2786 18.439 14.6724 19.0453 13.9245 19.0453C13.1766 19.0453 12.5703 18.439 12.5703 17.6911V2.16447C12.5703 1.41658 13.1766 0.810303 13.9245 0.810303Z" fill="white"/>
<path fill-rule="evenodd" clip-rule="evenodd" d="M42.2852 36.81V1.18384H45.3069V36.81H42.2852Z" fill="white"/>
<path fill-rule="evenodd" clip-rule="evenodd" d="M19.8932 0.810303C20.6411 0.810303 21.2474 1.41658 21.2474 2.16447V17.6911C21.2474 18.439 20.6411 19.0453 19.8932 19.0453C19.1453 19.0453 18.5391 18.439 18.5391 17.6911V2.16447C18.5391 1.41658 19.1453 0.810303 19.8932 0.810303Z" fill="white"/>
</svg>
