<svg width="71" height="37" viewBox="0 0 71 37" fill="none" xmlns="http://www.w3.org/2000/svg">
<path d="M70.3757 0.891235H44.5352V18.1156H70.3757V0.891235Z" fill="#0042B3"/>
<path d="M44.5273 0.891848V6.82007L70.3679 6.82007V0.891848L44.5273 0.891848Z" fill="#EA1C42"/>
<path d="M44.5352 12.464V18.3922H70.3757V12.464L44.5352 12.464Z" fill="#FFD42E"/>
<path d="M7.02344 17.6365V35.6079H37.2086V19.6261L7.02344 17.6365ZM16.6791 29.566H11.8553V24.6935H16.6791V29.566ZM25.1329 29.566H20.301V24.6935H25.1329V29.566ZM33.5867 29.566H28.7142V24.6935H33.5867V29.566Z" fill="white"/>
<path d="M70.5963 34.3984H0.984375V36.8103H70.5963V34.3984Z" fill="white"/>
<path fill-rule="evenodd" clip-rule="evenodd" d="M31.1691 9.38159C31.9249 9.38159 32.5375 9.99423 32.5375 10.75V21.4207C32.5375 22.1765 31.9249 22.7891 31.1691 22.7891C30.4134 22.7891 29.8008 22.1765 29.8008 21.4207V10.75C29.8008 9.99423 30.4134 9.38159 31.1691 9.38159Z" fill="white"/>
<path fill-rule="evenodd" clip-rule="evenodd" d="M12.1652 6.08484C12.921 6.08484 13.5336 6.69748 13.5336 7.4532V18.3189C13.5336 19.0746 12.921 19.6873 12.1652 19.6873C11.4095 19.6873 10.7969 19.0746 10.7969 18.3189V7.4532C10.7969 6.69748 11.4095 6.08484 12.1652 6.08484Z" fill="white"/>
<path fill-rule="evenodd" clip-rule="evenodd" d="M42.9258 36.81V0.810303H45.9792V36.81H42.9258Z" fill="white"/>
<path d="M12.1639 13.9986C15.003 13.9986 17.3044 11.6972 17.3044 8.85815C17.3044 6.01913 15.003 3.71765 12.1639 3.71765C9.32492 3.71765 7.02344 6.01913 7.02344 8.85815C7.02344 11.6972 9.32492 13.9986 12.1639 13.9986Z" fill="white"/>
<path fill-rule="evenodd" clip-rule="evenodd" d="M22.7199 4.6637C23.4757 4.6637 24.0883 5.27633 24.0883 6.03206V19.3015C24.0883 20.0572 23.4757 20.6699 22.7199 20.6699C21.9642 20.6699 21.3516 20.0572 21.3516 19.3015V6.03206C21.3516 5.27633 21.9642 4.6637 22.7199 4.6637Z" fill="white"/>
</svg>
