<svg width="70" height="37" viewBox="0 0 70 37" fill="none" xmlns="http://www.w3.org/2000/svg">
<path d="M68.8771 1.40051H43.3047V18.4461H68.8771V1.40051Z" fill="white"/>
<path d="M56.0909 1.40051H43.3047V18.4461H56.0909V1.40051Z" fill="#2E8F85"/>
<path d="M58.3356 6.46411L59.2839 8.38485L61.3975 8.69828L59.8706 10.1931L60.2322 12.2987L58.3356 11.3021L56.439 12.2987L56.8006 10.1931L55.2656 8.69828L57.3873 8.38485L58.3356 6.46411Z" fill="#EA1C42"/>
<path d="M57.8272 13.9939C56.7465 13.9939 55.7101 13.5646 54.946 12.8005C54.1819 12.0364 53.7526 11 53.7526 9.91937C53.7526 8.83874 54.1819 7.80236 54.946 7.03824C55.7101 6.27411 56.7465 5.84483 57.8272 5.84483C57.9664 5.83728 58.1059 5.83728 58.2451 5.84483C57.6171 5.42834 56.9003 5.1648 56.1522 5.07535C55.404 4.98591 54.6453 5.07305 53.9368 5.32978C53.2284 5.5865 52.59 6.00568 52.0729 6.55368C51.5557 7.10168 51.1742 7.76326 50.9589 8.48534C50.7436 9.20742 50.7005 9.96991 50.833 10.7117C50.9656 11.4534 51.2702 12.1538 51.7223 12.7565C52.1744 13.3593 52.7615 13.8477 53.4365 14.1827C54.1115 14.5176 54.8556 14.6896 55.6091 14.6851C56.5472 14.6793 57.4633 14.4 58.2451 13.8814C58.108 13.9267 57.9685 13.9643 57.8272 13.9939Z" fill="#EA1C42"/>
<path d="M21.7183 12.917L6.18359 17.6907V35.6203H36.0555V12.917H21.7183ZM15.7391 29.6411H10.9654V24.8192H15.7391V29.6411ZM24.1052 25.7996H19.3234V20.9777H24.1052V25.7996ZM32.4712 34.4229H27.6493V20.608H32.4712V34.4229Z" fill="white"/>
<path d="M69.0966 34.4235H0.207031V36.8103H69.0966V34.4235Z" fill="white"/>
<path fill-rule="evenodd" clip-rule="evenodd" d="M30.0768 0.810303C30.8247 0.810303 31.431 1.41658 31.431 2.16447V17.6911C31.431 18.439 30.8247 19.0453 30.0768 19.0453C29.3289 19.0453 28.7227 18.439 28.7227 17.6911V2.16447C28.7227 1.41658 29.3289 0.810303 30.0768 0.810303Z" fill="white"/>
<path fill-rule="evenodd" clip-rule="evenodd" d="M21.7174 4.39453C22.4653 4.39453 23.0716 5.00081 23.0716 5.74869V16.5016C23.0716 17.2495 22.4653 17.8558 21.7174 17.8558C20.9696 17.8558 20.3633 17.2495 20.3633 16.5016V5.74869C20.3633 5.00081 20.9696 4.39453 21.7174 4.39453Z" fill="white"/>
<path fill-rule="evenodd" clip-rule="evenodd" d="M41.7148 36.81V1.18384H44.7366V36.81H41.7148Z" fill="white"/>
</svg>
