<svg width="71" height="37" viewBox="0 0 71 37" fill="none" xmlns="http://www.w3.org/2000/svg">
<path d="M69.9148 0.875366H44.0742V18.0997H69.9148V0.875366Z" fill="white"/>
<path d="M44.082 0.87513V6.80334L69.9226 6.80334V0.87513L44.082 0.87513Z" fill="#EA1C42"/>
<path d="M44.082 12.1714V18.0996H69.9226V12.1714L44.082 12.1714Z" fill="#EA1C42"/>
<path d="M37.4322 19.8697C37.2942 14.1202 31.4147 9.48315 24.1628 9.48315C16.9108 9.48315 11.0395 14.1202 10.9014 19.8697H9.07422V35.3562H39.2594V19.8697H37.4322ZM18.7543 27.081H13.9061V22.2085H18.7299L18.7543 27.081ZM27.2081 27.081H22.3518V22.2085H27.1837L27.2081 27.081ZM35.6619 27.081H30.7894V22.2085H35.6619V27.081Z" fill="white"/>
<path d="M70.2096 34.3984H0.597656V36.8103H70.2096V34.3984Z" fill="white"/>
<path fill-rule="evenodd" clip-rule="evenodd" d="M42.5391 36.81V0.810303H45.5925V36.81H42.5391Z" fill="white"/>
<path fill-rule="evenodd" clip-rule="evenodd" d="M6.10274 2.37341C6.85846 2.37341 7.4711 2.98605 7.4711 3.74178V35.3562C7.4711 36.112 6.85846 36.7246 6.10274 36.7246C5.34701 36.7246 4.73438 36.112 4.73438 35.3562V3.74178C4.73438 2.98605 5.34701 2.37341 6.10274 2.37341Z" fill="white"/>
<path fill-rule="evenodd" clip-rule="evenodd" d="M15.091 5.43542C15.8467 5.43542 16.4594 6.04806 16.4594 6.80379V16.8655C16.4594 17.6212 15.8467 18.2339 15.091 18.2339C14.3353 18.2339 13.7227 17.6212 13.7227 16.8655V6.80379C13.7227 6.04806 14.3353 5.43542 15.091 5.43542Z" fill="white"/>
</svg>
