<svg width="70" height="37" viewBox="0 0 70 37" fill="none" xmlns="http://www.w3.org/2000/svg">
<path d="M68.8068 1.26392H43.2344V18.3095H68.8068V1.26392Z" fill="#EA1C42"/>
<path d="M43.2266 1.26452V7.13123L68.7989 7.13123V1.26452L43.2266 1.26452Z" fill="black"/>
<path d="M43.2344 12.7167V18.5834H68.8068V12.7167L43.2344 12.7167Z" fill="#FFD42E"/>
<path d="M21.648 12.917L6.11328 17.6907V35.6203H35.9852V17.6907L21.648 12.917ZM15.6688 29.6411H10.895V24.8192H15.6688V29.6411ZM24.0348 29.6411H19.2531V24.8192H24.0348V29.6411ZM32.4009 29.6411H27.579V24.8192H32.4009V29.6411Z" fill="white"/>
<path d="M69.0263 34.4235H0.136719V36.8103H69.0263V34.4235Z" fill="white"/>
<path fill-rule="evenodd" clip-rule="evenodd" d="M30.0065 0.810303C30.7544 0.810303 31.3607 1.41658 31.3607 2.16447V17.6911C31.3607 18.439 30.7544 19.0453 30.0065 19.0453C29.2586 19.0453 28.6523 18.439 28.6523 17.6911V2.16447C28.6523 1.41658 29.2586 0.810303 30.0065 0.810303Z" fill="white"/>
<path fill-rule="evenodd" clip-rule="evenodd" d="M21.6471 4.39453C22.395 4.39453 23.0013 5.00081 23.0013 5.74869V16.5016C23.0013 17.2495 22.395 17.8558 21.6471 17.8558C20.8992 17.8558 20.293 17.2495 20.293 16.5016V5.74869C20.293 5.00081 20.8992 4.39453 21.6471 4.39453Z" fill="white"/>
<path fill-rule="evenodd" clip-rule="evenodd" d="M41.6445 36.81V1.18384H44.6663V36.81H41.6445Z" fill="white"/>
</svg>
