<svg width="69" height="37" viewBox="0 0 69 37" fill="none" xmlns="http://www.w3.org/2000/svg">
<path d="M68.6896 1.40051H43.1172V18.4461H68.6896V1.40051Z" fill="#EA1C42"/>
<path d="M49.2401 4.00452L50.2527 6.06188L52.527 6.39138L50.8876 7.99066L51.2733 10.257L49.2401 9.18811L47.2068 10.257L47.5926 7.99066L45.9531 6.39138L48.2275 6.06188L49.2401 4.00452Z" fill="#FFD42E"/>
<path d="M23.9958 7.13123V17.6913H6.07422V35.6209H35.9462V7.13123H23.9958ZM15.6297 29.6336H10.856V24.8117H15.6297V29.6336ZM23.9958 29.6336H19.214V24.8117H23.9958V29.6336ZM32.3619 29.6336H27.5399V24.8117H32.3619V29.6336ZM32.3619 16.9278H27.5399V12.1541H32.3619V16.9278Z" fill="white"/>
<path d="M68.9872 34.4235H0.0976562V36.8103H68.9872V34.4235Z" fill="white"/>
<path fill-rule="evenodd" clip-rule="evenodd" d="M13.2448 0.810303C13.9927 0.810303 14.599 1.41658 14.599 2.16447V17.6911C14.599 18.439 13.9927 19.0453 13.2448 19.0453C12.4969 19.0453 11.8906 18.439 11.8906 17.6911V2.16447C11.8906 1.41658 12.4969 0.810303 13.2448 0.810303Z" fill="white"/>
<path fill-rule="evenodd" clip-rule="evenodd" d="M41.6055 36.81V1.18384H44.6272V36.81H41.6055Z" fill="white"/>
<path fill-rule="evenodd" clip-rule="evenodd" d="M19.2135 0.810303C19.9614 0.810303 20.5677 1.41658 20.5677 2.16447V17.6911C20.5677 18.439 19.9614 19.0453 19.2135 19.0453C18.4657 19.0453 17.8594 18.439 17.8594 17.6911V2.16447C17.8594 1.41658 18.4657 0.810303 19.2135 0.810303Z" fill="white"/>
</svg>
