<svg width="71" height="37" viewBox="0 0 71 37" fill="none" xmlns="http://www.w3.org/2000/svg">
<path d="M69.7763 1.26184H44.3203V18.2298H69.7763V1.26184Z" fill="#EA1C42"/>
<path d="M62.9107 8.19811H59.0387V4.31812H55.9347V8.19811H52.0547V11.3021H55.9347V15.1821H59.0387V11.3021H62.9107V8.19811Z" fill="white"/>
<path d="M37.7044 12.8618H17.4805L20.5205 35.4618H40.7764L37.7044 12.8618ZM27.1764 25.0458H22.4245V20.2858H27.1845L27.1764 25.0458ZM35.2324 25.0458H30.4724V20.2858H35.2244L35.2324 25.0458Z" fill="white"/>
<path d="M70.5954 34.2704H2.01953V36.6464H70.5954V34.2704Z" fill="white"/>
<path fill-rule="evenodd" clip-rule="evenodd" d="M24.7894 0.810303C25.5339 0.810303 26.1374 1.41382 26.1374 2.1583V17.6143C26.1374 18.3587 25.5339 18.9623 24.7894 18.9623C24.0449 18.9623 23.4414 18.3587 23.4414 17.6143V2.1583C23.4414 1.41382 24.0449 0.810303 24.7894 0.810303Z" fill="white"/>
<path fill-rule="evenodd" clip-rule="evenodd" d="M43.3359 36.6461V1.18213H46.3439V36.6461H43.3359Z" fill="white"/>
<path fill-rule="evenodd" clip-rule="evenodd" d="M7.37475 2.05178C7.43031 1.35081 8.01536 0.810303 8.71853 0.810303H16.4705C17.1722 0.810303 17.7565 1.34856 17.814 2.04785L16.4705 2.1583C17.814 2.04785 17.814 2.0476 17.814 2.04785L17.9274 3.43028C17.9996 4.31078 18.1028 5.56993 18.2265 7.08464C18.4741 10.114 18.8041 14.1657 19.1341 18.2548C19.4642 22.3436 19.7943 26.4709 20.0419 29.651C20.2854 32.7771 20.4585 35.095 20.4585 35.4622C20.4585 36.2067 19.855 36.8102 19.1105 36.8102C18.366 36.8102 17.7625 36.2067 17.7625 35.4622C17.7625 35.4648 17.7619 35.4304 17.7568 35.3321C17.7522 35.2441 17.7451 35.1261 17.7356 34.9783C17.7167 34.6832 17.6886 34.2815 17.6526 33.7868C17.5807 32.7981 17.4778 31.4487 17.3541 29.8603C17.1067 26.6841 16.7769 22.5599 16.4469 18.4717C16.1169 14.3838 15.787 10.3331 15.5395 7.30419C15.4158 5.78978 15.3126 4.53088 15.2405 3.6506L15.2286 3.5063H9.9639L7.42232 35.5688C7.36349 36.3109 6.71416 36.8648 5.97201 36.806C5.22986 36.7472 4.67592 36.0979 4.73475 35.3557L7.37475 2.05178Z" fill="white"/>
<path fill-rule="evenodd" clip-rule="evenodd" d="M8.01887 1.00742C8.65459 0.619984 9.48402 0.821264 9.87145 1.45699L17.6234 14.177C17.9289 14.6782 17.8749 15.3194 17.49 15.7625L8.78259 25.7851L18.3088 33.2071C18.8961 33.6646 19.0013 34.5116 18.5437 35.0989C18.0862 35.6862 17.2392 35.7913 16.6519 35.3338L6.0039 27.0378C5.71203 26.8104 5.52646 26.473 5.49069 26.1047C5.45493 25.7365 5.57211 25.3697 5.81478 25.0904L14.8084 14.7384L7.56929 2.86C7.18186 2.22428 7.38314 1.39485 8.01887 1.00742Z" fill="white"/>
<path fill-rule="evenodd" clip-rule="evenodd" d="M32.8558 0.810303C33.6003 0.810303 34.2038 1.41382 34.2038 2.1583V17.6143C34.2038 18.3587 33.6003 18.9623 32.8558 18.9623C32.1113 18.9623 31.5078 18.3587 31.5078 17.6143V2.1583C31.5078 1.41382 32.1113 0.810303 32.8558 0.810303Z" fill="white"/>
<path fill-rule="evenodd" clip-rule="evenodd" d="M0.667969 9.75046C0.667969 9.00598 1.27149 8.40247 2.01597 8.40247H8.10395C8.84843 8.40247 9.45195 9.00598 9.45195 9.75046C9.45195 10.4949 8.84843 11.0985 8.10395 11.0985H2.01597C1.27149 11.0985 0.667969 10.4949 0.667969 9.75046Z" fill="white"/>
</svg>
