<svg width="70" height="37" viewBox="0 0 70 37" fill="none" xmlns="http://www.w3.org/2000/svg">
<path d="M69.5607 1.26392H43.9883V18.3095H69.5607V1.26392Z" fill="white"/>
<path d="M45.293 1.15955L56.7772 10.4659H48.5799L56.7772 18.4141H45.293V1.15955Z" fill="#EA1C42"/>
<path d="M49.3653 16.5018C50.1021 16.5018 50.6994 15.9045 50.6994 15.1677C50.6994 14.4309 50.1021 13.8336 49.3653 13.8336C48.6285 13.8336 48.0312 14.4309 48.0312 15.1677C48.0312 15.9045 48.6285 16.5018 49.3653 16.5018Z" fill="white"/>
<path d="M49.3653 8.94707C50.1021 8.94707 50.6994 8.34979 50.6994 7.613C50.6994 6.87621 50.1021 6.27893 49.3653 6.27893C48.6285 6.27893 48.0312 6.87621 48.0312 7.613C48.0312 8.34979 48.6285 8.94707 49.3653 8.94707Z" fill="white"/>
<path d="M22.4019 12.917L6.86719 17.6907V35.6203H36.7391V17.6907L22.4019 12.917ZM16.4227 29.6411H11.6489V24.8192H16.4227V29.6411ZM24.7888 29.6411H20.007V24.8192H24.7888V29.6411ZM33.1548 29.6411H28.3329V24.8192H33.1548V29.6411Z" fill="white"/>
<path d="M69.7802 34.4235H0.890625V36.8103H69.7802V34.4235Z" fill="white"/>
<path fill-rule="evenodd" clip-rule="evenodd" d="M30.7604 0.810303C31.5083 0.810303 32.1146 1.41658 32.1146 2.16447V17.6911C32.1146 18.439 31.5083 19.0453 30.7604 19.0453C30.0125 19.0453 29.4062 18.439 29.4062 17.6911V2.16447C29.4062 1.41658 30.0125 0.810303 30.7604 0.810303Z" fill="white"/>
<path fill-rule="evenodd" clip-rule="evenodd" d="M22.401 4.39453C23.1489 4.39453 23.7552 5.00081 23.7552 5.74869V16.5016C23.7552 17.2495 23.1489 17.8558 22.401 17.8558C21.6532 17.8558 21.0469 17.2495 21.0469 16.5016V5.74869C21.0469 5.00081 21.6532 4.39453 22.401 4.39453Z" fill="white"/>
<path fill-rule="evenodd" clip-rule="evenodd" d="M42.3984 36.81V1.18384H45.4202V36.81H42.3984Z" fill="white"/>
</svg>
