<svg width="69" height="37" viewBox="0 0 69 37" fill="none" xmlns="http://www.w3.org/2000/svg">
<path d="M68.67 1.40051H43.0977V18.4461H68.67V1.40051Z" fill="white"/>
<path d="M68.67 7.26782H43.0977V12.58H68.67V7.26782Z" fill="#EA1C42"/>
<path d="M68.67 1.40051H43.0977V6.71269H68.67V1.40051Z" fill="black"/>
<path d="M68.67 13.1344H43.0977V18.4466H68.67V13.1344Z" fill="#2E8F85"/>
<path d="M55.9649 15.7944C57.3586 15.7944 58.4884 13.1678 58.4884 9.92773C58.4884 6.68765 57.3586 4.06104 55.9649 4.06104C54.5712 4.06104 53.4414 6.68765 53.4414 9.92773C53.4414 13.1678 54.5712 15.7944 55.9649 15.7944Z" fill="white"/>
<path fill-rule="evenodd" clip-rule="evenodd" d="M59.8114 17.1894L51.4453 4.02551L52.1168 3.59875L60.4829 16.7627L59.8114 17.1894Z" fill="white"/>
<path fill-rule="evenodd" clip-rule="evenodd" d="M51.4141 16.7366L59.8444 3.61292L60.5138 4.04293L52.0835 17.1667L51.4141 16.7366Z" fill="white"/>
<path d="M21.5113 17.6102L5.97656 17.8353V35.6202H35.8485V17.6906L21.5113 17.6102ZM15.5321 29.6651H10.7583V24.8431H15.5321V29.6651ZM23.8981 29.6651H19.1164V24.8431H23.8981V29.6651ZM32.2642 29.6651H27.4423V24.8431H32.2642V29.6651Z" fill="white"/>
<path d="M68.8895 34.4235H0V36.8103H68.8895V34.4235Z" fill="white"/>
<path fill-rule="evenodd" clip-rule="evenodd" d="M29.8698 0.810303C30.6177 0.810303 31.224 1.41658 31.224 2.16447V17.6911C31.224 18.439 30.6177 19.0453 29.8698 19.0453C29.1219 19.0453 28.5156 18.439 28.5156 17.6911V2.16447C28.5156 1.41658 29.1219 0.810303 29.8698 0.810303Z" fill="white"/>
<path fill-rule="evenodd" clip-rule="evenodd" d="M11.0651 6.40369C11.813 6.40369 12.4193 7.00997 12.4193 7.75785V18.5108C12.4193 19.2587 11.813 19.865 11.0651 19.865C10.3172 19.865 9.71094 19.2587 9.71094 18.5108V7.75785C9.71094 7.00997 10.3172 6.40369 11.0651 6.40369Z" fill="white"/>
<path fill-rule="evenodd" clip-rule="evenodd" d="M41.5078 36.81V1.18384H44.5296V36.81H41.5078Z" fill="white"/>
<path d="M11.0637 14.2353C13.8733 14.2353 16.1509 11.9577 16.1509 9.14819C16.1509 6.33863 13.8733 4.06104 11.0637 4.06104C8.25416 4.06104 5.97656 6.33863 5.97656 9.14819C5.97656 11.9577 8.25416 14.2353 11.0637 14.2353Z" fill="white"/>
</svg>
